<?xml version="1.0" encoding="utf-8"?>
<!-- Generator: Adobe Illustrator 19.0.0, SVG Export Plug-In . SVG Version: 6.00 Build 0)  -->
<svg version="1.1" id="Warstwa_1" xmlns="http://www.w3.org/2000/svg" xmlns:xlink="http://www.w3.org/1999/xlink" x="0px" y="0px"
	 viewBox="0 0 100 100" style="enable-background:new 0 0 100 100;" xml:space="preserve">
<style type="text/css">
	.st0{fill:#1C75BC;stroke:#000000;stroke-width:2;stroke-miterlimit:10;}
	.st1{fill:#F7941E;stroke:#000000;stroke-width:2;stroke-miterlimit:10;}
	.st2{fill:none;stroke:#000000;stroke-width:4;stroke-miterlimit:10;}
	.st3{fill:none;stroke:#000000;stroke-width:3;stroke-miterlimit:10;}
	.st4{stroke:#000000;stroke-width:3;stroke-miterlimit:10;}
</style>
<path id="XMLID_10_" class="st0" d="M86.9,26.2L57,81.1l-38-20.8c-4-2.2-9.1-0.8-11.4,3c0-0.1,0.1-0.1,0.1-0.2L37.2,8.9
	c2.3-4.2,7.5-5.7,11.7-3.4L86.9,26.2z"/>
<path id="XMLID_12_" class="st1" d="M57,81.1L49,95.6L11,74.9c-4-2.2-5.6-7.2-3.6-11.3c0-0.1,0.1-0.1,0.1-0.2
	c2.4-3.9,7.4-5.3,11.4-3L57,81.1z"/>
<path id="XMLID_5_" class="st2" d="M52.9,58"/>
<g id="XMLID_6_">
	<circle id="XMLID_1_" class="st3" cx="49.5" cy="38.7" r="19.6"/>
	<line id="XMLID_3_" class="st3" x1="63" y1="52.9" x2="68.2" y2="58.1"/>
	<path id="XMLID_4_" class="st4" d="M94,84L94,84c-0.6,0.6-1.5,0.6-2.1,0L66.7,58.8l2.1-2.1L94,81.9C94.6,82.5,94.6,83.4,94,84z"/>
</g>
</svg>
