<?xml version="1.0" encoding="utf-8"?>
<!-- Generator: Adobe Illustrator 19.0.0, SVG Export Plug-In . SVG Version: 6.00 Build 0)  -->
<svg version="1.1" id="Warstwa_1" xmlns="http://www.w3.org/2000/svg" xmlns:xlink="http://www.w3.org/1999/xlink" x="0px" y="0px"
	 viewBox="0 0 100 100" style="enable-background:new 0 0 100 100;" xml:space="preserve">
<style type="text/css">
	.st0{fill:none;stroke:#000000;stroke-width:2;stroke-linecap:round;stroke-miterlimit:10;}
	.st1{fill:#1C75BC;}
	.st2{fill:#F7941E;}
</style>
<line id="XMLID_2_" class="st0" x1="10" y1="43.1" x2="90" y2="43.1"/>
<g id="XMLID_181_">
	<g id="XMLID_52_">
		<rect id="XMLID_60_" x="14.8" y="6.8" class="st1" width="7.3" height="3.8"/>
		<path id="XMLID_57_" class="st1" d="M21.2,7.8v1.8h-5.3V7.8H21.2 M22.3,5.8h-7.7c-0.5,0-0.8,0.4-0.8,0.8v5h9.3v-5
			C23.2,6.1,22.8,5.8,22.3,5.8L22.3,5.8z"/>
	</g>
	<g id="XMLID_46_">
		<rect id="XMLID_32_" x="14.8" y="17.1" class="st1" width="7.3" height="10.8"/>
		<path id="XMLID_27_" class="st1" d="M21.2,18.1v8.8h-5.3v-8.8H21.2 M23.2,16.1h-9.3v12.8h9.3V16.1L23.2,16.1z"/>
	</g>
	<g id="XMLID_28_">
		<rect id="XMLID_49_" x="14.8" y="34.5" class="st1" width="7.3" height="5.1"/>
		<path id="XMLID_41_" class="st1" d="M21.2,35.5v3.1h-5.3v-3.1H21.2 M23.2,33.5h-9.3v6.3c0,0.4,0.4,0.8,0.8,0.8h7.7
			c0.5,0,0.8-0.4,0.8-0.8V33.5L23.2,33.5z"/>
	</g>
</g>
<g id="XMLID_183_">
	<g id="XMLID_35_">
		<path id="XMLID_69_" class="st1" d="M38.6,10.5V6.8c0.1,0,0.1,0,0.3,0h11.9c0.1,0,0.2,0,0.3,0v3.7H38.6z"/>
		<path id="XMLID_40_" class="st1" d="M50,7.8v1.8H39.6V7.8H50 M50.7,5.8H38.8c-0.7,0-1.3,0.4-1.3,0.8v5H52v-5
			C52,6.1,51.4,5.8,50.7,5.8L50.7,5.8z"/>
	</g>
	<g id="XMLID_15_">
		<rect id="XMLID_55_" x="38.6" y="17.1" class="st1" width="12.4" height="10.8"/>
		<path id="XMLID_44_" class="st1" d="M50,18.1v8.8H39.6v-8.8H50 M52,16.1H37.6v12.8H52V16.1L52,16.1z"/>
	</g>
	<g id="XMLID_4_">
		<path id="XMLID_53_" class="st1" d="M38.8,39.6c-0.1,0-0.2,0-0.3,0v-5.1H51v5.1c-0.1,0-0.1,0-0.3,0H38.8z"/>
		<path id="XMLID_43_" class="st1" d="M50,35.5v3.1H39.6v-3.1H50 M52,33.5H37.6v6.3c0,0.4,0.6,0.8,1.3,0.8h11.9
			c0.7,0,1.3-0.4,1.3-0.8V33.5L52,33.5z"/>
	</g>
</g>
<g id="XMLID_182_">
	<g id="XMLID_63_">
		<rect id="XMLID_78_" x="27" y="6.8" class="st2" width="7.3" height="3.8"/>
		<path id="XMLID_75_" class="st2" d="M33.3,7.8v1.8H28V7.8H33.3 M34.5,5.8h-7.7c-0.5,0-0.8,0.4-0.8,0.8v5h9.3v-5
			C35.3,6.1,34.9,5.8,34.5,5.8L34.5,5.8z"/>
	</g>
	<g id="XMLID_24_">
		<rect id="XMLID_25_" x="27" y="17.1" class="st2" width="7.3" height="10.8"/>
		<path id="XMLID_21_" class="st2" d="M33.3,18.1v8.8H28v-8.8H33.3 M35.3,16.1H26v12.8h9.3V16.1L35.3,16.1z"/>
	</g>
	<g id="XMLID_8_">
		<rect id="XMLID_68_" x="27" y="34.5" class="st2" width="7.3" height="5.1"/>
		<path id="XMLID_65_" class="st2" d="M33.3,35.5v3.1H28v-3.1H33.3 M35.3,33.5H26v6.3c0,0.4,0.4,0.8,0.8,0.8h7.7
			c0.5,0,0.8-0.4,0.8-0.8V33.5L35.3,33.5z"/>
	</g>
	<g id="XMLID_6_">
		<rect id="XMLID_79_" x="26" y="13.2" class="st2" width="9.3" height="1.2"/>
		<polygon id="XMLID_74_" class="st2" points="35.3,13.2 26,13.2 26,14.4 35.3,14.4 35.3,13.2 		"/>
	</g>
	<g id="XMLID_11_">
		<rect id="XMLID_16_" x="26" y="30.6" class="st2" width="9.3" height="1.2"/>
		<polygon id="XMLID_13_" class="st2" points="35.3,30.6 26,30.6 26,31.8 35.3,31.8 35.3,30.6 		"/>
	</g>
</g>
<g id="XMLID_184_">
	<g id="XMLID_104_">
		<rect id="XMLID_96_" x="53.9" y="13.2" class="st2" width="3.6" height="1.2"/>
		<polygon id="XMLID_94_" class="st2" points="57.5,13.2 53.9,13.2 53.9,14.4 57.5,14.4 57.5,13.2 		"/>
	</g>
	<g id="XMLID_81_">
		<rect id="XMLID_82_" x="53.9" y="30.6" class="st2" width="3.6" height="1.2"/>
		<polygon id="XMLID_80_" class="st2" points="57.5,30.6 53.9,30.6 53.9,31.8 57.5,31.8 57.5,30.6 		"/>
	</g>
	<g id="XMLID_112_">
		<rect id="XMLID_110_" x="54.9" y="6.8" class="st2" width="1.6" height="3.8"/>
		<path id="XMLID_109_" class="st2" d="M57.3,5.8h-3.2c-0.1,0-0.2,0.4-0.2,0.8v5h3.6v-5C57.5,6.1,57.4,5.8,57.3,5.8L57.3,5.8z"/>
	</g>
	<g id="XMLID_85_">
		<rect id="XMLID_93_" x="54.9" y="17.1" class="st2" width="1.6" height="10.8"/>
		<polygon id="XMLID_92_" class="st2" points="57.5,16.1 53.9,16.1 53.9,28.9 57.5,28.9 57.5,16.1 		"/>
	</g>
	<g id="XMLID_20_">
		<rect id="XMLID_83_" x="54.9" y="34.5" class="st2" width="1.6" height="5.1"/>
		<path id="XMLID_73_" class="st2" d="M57.5,33.5h-3.6v6.3c0,0.4,0.1,0.8,0.2,0.8h3.2c0.1,0,0.2-0.4,0.2-0.8V33.5L57.5,33.5z"/>
	</g>
</g>
<line id="XMLID_167_" class="st0" x1="10" y1="91.8" x2="90" y2="91.8"/>
<g id="XMLID_187_">
	<g id="XMLID_161_">
		<rect id="XMLID_177_" x="14.8" y="50.4" class="st2" width="7.3" height="4.6"/>
		<path id="XMLID_174_" class="st2" d="M21.2,51.4V54h-5.3v-2.6H21.2 M22.3,49.4h-7.7c-0.5,0-0.8,0.4-0.8,0.9V56h9.3v-5.7
			C23.2,49.8,22.8,49.4,22.3,49.4L22.3,49.4z"/>
	</g>
	<g id="XMLID_155_">
		<rect id="XMLID_172_" x="14.8" y="60.6" class="st2" width="7.3" height="15.9"/>
		<path id="XMLID_169_" class="st2" d="M21.2,61.6v13.9h-5.3V61.6H21.2 M23.2,59.6h-9.3v17.9h9.3V59.6L23.2,59.6z"/>
	</g>
	<g id="XMLID_149_">
		<rect id="XMLID_166_" x="14.8" y="82.2" class="st2" width="7.3" height="6.1"/>
		<path id="XMLID_163_" class="st2" d="M21.2,83.2v4.1h-5.3v-4.1H21.2 M23.2,81.2h-9.3v7.2c0,0.5,0.4,0.9,0.8,0.9h7.7
			c0.5,0,0.8-0.4,0.8-0.9V81.2L23.2,81.2z"/>
	</g>
</g>
<g id="XMLID_188_">
	<g id="XMLID_125_">
		<rect id="XMLID_135_" x="27" y="59.6" class="st1" width="0.4" height="3.1"/>
		<path id="XMLID_134_" class="st1" d="M28.2,58.6h-2c-0.1,0-0.2,0.3-0.2,0.7v4.4h2.4v-4.4C28.4,58.9,28.3,58.6,28.2,58.6L28.2,58.6
			z"/>
	</g>
	<g id="XMLID_119_">
		<rect id="XMLID_133_" x="27" y="68.7" class="st1" width="0.4" height="9.3"/>
		<polygon id="XMLID_130_" class="st1" points="28.4,67.7 26,67.7 26,79 28.4,79 28.4,67.7 		"/>
	</g>
	<g id="XMLID_113_">
		<rect id="XMLID_129_" x="27" y="84" class="st1" width="0.4" height="4.2"/>
		<path id="XMLID_128_" class="st1" d="M28.4,83H26v5.5c0,0.4,0.1,0.7,0.2,0.7h2c0.1,0,0.2-0.3,0.2-0.7V83L28.4,83z"/>
	</g>
	<g id="XMLID_105_">
		<rect id="XMLID_121_" x="26" y="65.2" class="st1" width="2.4" height="1.1"/>
		<polygon id="XMLID_120_" class="st1" points="28.4,65.2 26,65.2 26,66.2 28.4,66.2 28.4,65.2 		"/>
	</g>
	<g id="XMLID_100_">
		<rect id="XMLID_118_" x="26" y="80.5" class="st1" width="2.4" height="1.1"/>
		<polygon id="XMLID_117_" class="st1" points="28.4,80.5 26,80.5 26,81.6 28.4,81.6 28.4,80.5 		"/>
	</g>
</g>
<g id="XMLID_202_">
	<g id="XMLID_95_">
		<rect id="XMLID_114_" x="30.6" y="61.9" class="st1" width="3.6" height="1.2"/>
		<polygon id="XMLID_111_" class="st1" points="34.2,61.9 30.6,61.9 30.6,63.1 34.2,63.1 34.2,61.9 		"/>
	</g>
	<g id="XMLID_88_">
		<rect id="XMLID_106_" x="30.6" y="79.3" class="st1" width="3.6" height="1.2"/>
		<polygon id="XMLID_103_" class="st1" points="34.2,79.3 30.6,79.3 30.6,80.5 34.2,80.5 34.2,79.3 		"/>
	</g>
	<g id="XMLID_37_">
		<rect id="XMLID_102_" x="31.6" y="55.4" class="st1" width="1.6" height="3.8"/>
		<path id="XMLID_101_" class="st1" d="M34,54.4h-3.2c-0.1,0-0.2,0.4-0.2,0.8v5h3.6v-5C34.2,54.8,34.2,54.4,34,54.4L34,54.4z"/>
	</g>
	<g id="XMLID_10_">
		<rect id="XMLID_98_" x="31.6" y="65.8" class="st1" width="1.6" height="10.8"/>
		<polygon id="XMLID_97_" class="st1" points="34.2,64.8 30.6,64.8 30.6,77.6 34.2,77.6 34.2,64.8 		"/>
	</g>
	<g id="XMLID_3_">
		<rect id="XMLID_90_" x="31.6" y="83.2" class="st1" width="1.6" height="5.1"/>
		<path id="XMLID_89_" class="st1" d="M34.2,82.2h-3.6v6.3c0,0.4,0.1,0.8,0.2,0.8H34c0.1,0,0.2-0.4,0.2-0.8V82.2L34.2,82.2z"/>
	</g>
</g>
<g id="XMLID_211_">
	<g id="XMLID_14_">
		<rect id="XMLID_168_" x="36.4" y="59.8" class="st2" width="12.1" height="1.3"/>
		<polygon id="XMLID_162_" class="st2" points="48.5,59.8 36.4,59.8 36.4,61.1 48.5,61.1 48.5,59.8 		"/>
	</g>
	<g id="XMLID_9_">
		<rect id="XMLID_154_" x="36.4" y="78.5" class="st2" width="12.1" height="1.3"/>
		<polygon id="XMLID_148_" class="st2" points="48.5,78.5 36.4,78.5 36.4,79.8 48.5,79.8 48.5,78.5 		"/>
	</g>
	<g id="XMLID_7_">
		<rect id="XMLID_159_" x="37.4" y="52.8" class="st2" width="10.1" height="4.2"/>
		<path id="XMLID_156_" class="st2" d="M46.5,53.8V56h-8.1v-2.2H46.5 M47.8,51.8H37.1c-0.4,0-0.7,0.4-0.7,0.9V58h12.1v-5.4
			C48.5,52.1,48.2,51.8,47.8,51.8L47.8,51.8z"/>
	</g>
	<g id="XMLID_5_">
		<rect id="XMLID_153_" x="37.4" y="63.9" class="st2" width="10.1" height="11.8"/>
		<path id="XMLID_150_" class="st2" d="M46.5,64.9v9.8h-8.1v-9.8H46.5 M48.5,62.9H36.4v13.8h12.1V62.9L48.5,62.9z"/>
	</g>
	<g id="XMLID_1_">
		<rect id="XMLID_147_" x="37.4" y="82.6" class="st2" width="10.1" height="5.6"/>
		<path id="XMLID_144_" class="st2" d="M46.5,83.6v3.6h-8.1v-3.6H46.5 M48.5,81.6H36.4v6.8c0,0.5,0.3,0.9,0.7,0.9h10.7
			c0.4,0,0.7-0.4,0.7-0.9V81.6L48.5,81.6z"/>
	</g>
</g>
<g id="XMLID_228_">
	<g id="XMLID_131_">
		<rect id="XMLID_223_" x="80.4" y="80.8" class="st2" width="3.1" height="0.4"/>
		<path id="XMLID_219_" class="st2" d="M83.8,79.8h-4.4v2.4h4.4c0.4,0,0.7-0.1,0.7-0.2v-2C84.5,79.9,84.2,79.8,83.8,79.8L83.8,79.8z
			"/>
	</g>
	<g id="XMLID_127_">
		<rect id="XMLID_212_" x="65.1" y="80.8" class="st2" width="9.3" height="0.4"/>
		<polygon id="XMLID_203_" class="st2" points="75.4,79.8 64.1,79.8 64.1,82.2 75.4,82.2 75.4,79.8 		"/>
	</g>
	<g id="XMLID_116_">
		<rect id="XMLID_199_" x="54.9" y="80.8" class="st2" width="4.2" height="0.4"/>
		<path id="XMLID_198_" class="st2" d="M60.1,79.8h-5.5c-0.4,0-0.7,0.1-0.7,0.2v2c0,0.1,0.3,0.2,0.7,0.2h5.5V79.8L60.1,79.8z"/>
	</g>
	<g id="XMLID_36_">
		<rect id="XMLID_195_" x="76.9" y="79.8" class="st2" width="1.1" height="2.4"/>
		<polygon id="XMLID_194_" class="st2" points="78,79.8 76.9,79.8 76.9,82.2 78,82.2 78,79.8 		"/>
	</g>
	<g id="XMLID_19_">
		<rect id="XMLID_192_" x="61.6" y="79.8" class="st2" width="1.1" height="2.4"/>
		<polygon id="XMLID_191_" class="st2" points="62.6,79.8 61.6,79.8 61.6,82.2 62.6,82.2 62.6,79.8 		"/>
	</g>
</g>
<g id="XMLID_186_">
	<g id="XMLID_178_">
		
			<rect id="XMLID_217_" x="65.8" y="36.5" transform="matrix(-0.9747 0.2235 -0.2235 -0.9747 138.7637 60.3235)" class="st1" width="0.4" height="3.1"/>
		<path id="XMLID_216_" class="st1" d="M66.6,35.3l-2.4,0.5l1,4.3c0.1,0.4,0.2,0.6,0.3,0.6c0,0,0,0,0,0l1.9-0.4c0.1,0,0.1-0.4,0-0.7
			L66.6,35.3L66.6,35.3z"/>
	</g>
	<g id="XMLID_173_">
		
			<rect id="XMLID_214_" x="63.1" y="21.5" transform="matrix(-0.9751 0.2217 -0.2217 -0.9751 130.7407 37.5443)" class="st1" width="0.4" height="9.3"/>
		<polygon id="XMLID_213_" class="st1" points="63.2,20.4 60.8,20.9 63.3,31.9 65.7,31.3 63.2,20.4 		"/>
	</g>
	<g id="XMLID_160_">
		
			<rect id="XMLID_218_" x="60.2" y="11.5" transform="matrix(-0.9752 0.2215 -0.2215 -0.9752 122.3706 13.5374)" class="st1" width="0.4" height="4.2"/>
		<path id="XMLID_215_" class="st1" d="M60.7,10.4C60.7,10.4,60.7,10.4,60.7,10.4l-2,0.4c-0.1,0-0.1,0.4,0,0.7l1.2,5.4l2.4-0.5
			L61.1,11C61,10.6,60.8,10.4,60.7,10.4L60.7,10.4z"/>
	</g>
	<g id="XMLID_137_">
		
			<rect id="XMLID_207_" x="63.8" y="33" transform="matrix(-0.9751 0.2217 -0.2217 -0.9751 135.7439 51.9097)" class="st1" width="2.4" height="1.1"/>
		<polygon id="XMLID_206_" class="st1" points="66,32.8 63.7,33.3 63.9,34.4 66.3,33.8 66,32.8 		"/>
	</g>
	<g id="XMLID_136_">
		
			<rect id="XMLID_205_" x="60.4" y="18.1" transform="matrix(-0.9751 0.2217 -0.2217 -0.9751 125.7339 23.1802)" class="st1" width="2.4" height="1.1"/>
		<polygon id="XMLID_204_" class="st1" points="62.6,17.9 60.3,18.4 60.5,19.4 62.9,18.9 62.6,17.9 		"/>
	</g>
</g>
<g id="XMLID_233_">
	<g id="XMLID_185_">
		<rect id="XMLID_237_" x="84.9" y="84.2" class="st1" width="4.6" height="4.2"/>
		<path id="XMLID_234_" class="st1" d="M88.5,85.2v2.2h-2.6v-2.2H88.5 M89.6,83.2h-5.7v6.2h5.7c0.5,0,0.9-0.2,0.9-0.5v-5.1
			C90.5,83.5,90.1,83.2,89.6,83.2L89.6,83.2z"/>
	</g>
	<g id="XMLID_180_">
		<rect id="XMLID_232_" x="63.4" y="84.2" class="st1" width="15.9" height="4.2"/>
		<path id="XMLID_229_" class="st1" d="M78.3,85.2v2.2H64.4v-2.2H78.3 M80.3,83.2H62.4v6.2h17.9V83.2L80.3,83.2z"/>
	</g>
	<g id="XMLID_179_">
		<rect id="XMLID_227_" x="51.6" y="84.2" class="st1" width="6.1" height="4.2"/>
		<path id="XMLID_224_" class="st1" d="M56.8,85.2v2.2h-4.1v-2.2H56.8 M58.8,83.2h-7.2c-0.5,0-0.9,0.2-0.9,0.5v5.1
			c0,0.3,0.4,0.5,0.9,0.5h7.2V83.2L58.8,83.2z"/>
	</g>
</g>
</svg>
