<?xml version="1.0" encoding="utf-8"?>
<!-- Generator: Adobe Illustrator 19.0.0, SVG Export Plug-In . SVG Version: 6.00 Build 0)  -->
<svg version="1.1" id="Warstwa_1" xmlns="http://www.w3.org/2000/svg" xmlns:xlink="http://www.w3.org/1999/xlink" x="0px" y="0px"
	 viewBox="0 0 100 100" style="enable-background:new 0 0 100 100;" xml:space="preserve">
<style type="text/css">
	.st0{fill:none;stroke:#000000;stroke-width:2;stroke-linecap:round;stroke-miterlimit:10;}
	.st1{fill:#1C75BC;}
	.st2{fill:#F7941E;}
</style>
<line id="XMLID_2_" class="st0" x1="3.4" y1="92.2" x2="96.1" y2="92.2"/>
<g id="XMLID_181_">
	<g id="XMLID_52_">
		<path id="XMLID_121_" class="st1" d="M8.2,22.2V12c0-0.5,0.2-0.8,0.3-0.8l11.5,0c0,0,0.2,0.3,0.2,0.8v10.2H8.2z"/>
		<path id="XMLID_118_" d="M19.2,12.3v8.9h-10v-8.9H19.2 M20,10.3H8.4c-0.7,0-1.2,0.8-1.2,1.8v11.2h14V12
			C21.2,11.1,20.6,10.3,20,10.3L20,10.3z"/>
	</g>
	<g id="XMLID_46_">
		<rect id="XMLID_116_" x="8.2" y="34.5" class="st1" width="12" height="26.7"/>
		<path id="XMLID_113_" d="M19.2,35.5v24.7h-10V35.5H19.2 M21.2,33.5h-14v28.7h14V33.5L21.2,33.5z"/>
	</g>
	<g id="XMLID_28_">
		<path id="XMLID_110_" class="st1" d="M8.4,87.5c0,0-0.2-0.3-0.2-0.8V73.6h12v13.1c0,0.5-0.2,0.7-0.3,0.8H8.4z"/>
		<path id="XMLID_107_" d="M19.2,74.6v11.9h-10V74.6H19.2 M21.2,72.6h-14v14.1c0,1,0.5,1.8,1.2,1.8H20c0.7,0,1.2-0.8,1.2-1.8V72.6
			L21.2,72.6z"/>
	</g>
</g>
<g id="XMLID_183_">
	<g id="XMLID_35_">
		<path id="XMLID_105_" class="st1" d="M43.8,30.2v-8.8c0-0.3,0.4-0.6,0.9-0.6h17.8c0.5,0,0.9,0.3,0.9,0.6v8.8H43.8z"/>
		<path id="XMLID_101_" d="M62.3,21.9v7.4H44.8v-7.4H62.3 M62.5,19.9H44.6c-1,0-1.9,0.7-1.9,1.6v9.8h21.6v-9.8
			C64.3,20.6,63.5,19.9,62.5,19.9L62.5,19.9z"/>
	</g>
	<g id="XMLID_15_">
		<rect id="XMLID_99_" x="43.8" y="41.3" class="st1" width="19.6" height="23.2"/>
		<path id="XMLID_96_" d="M62.3,42.3v21.2H44.8V42.3H62.3 M64.3,40.3H42.8v25.2h21.6V40.3L64.3,40.3z"/>
	</g>
	<g id="XMLID_4_">
		<path id="XMLID_94_" class="st1" d="M44.6,87.5c-0.5,0-0.9-0.3-0.9-0.6V75.5h19.6v11.4c0,0.3-0.4,0.6-0.9,0.6H44.6z"/>
		<path id="XMLID_91_" d="M62.3,76.5v10H44.8v-10H62.3 M64.3,74.5H42.8v12.4c0,0.9,0.8,1.6,1.9,1.6h17.8c1,0,1.9-0.7,1.9-1.6V74.5
			L64.3,74.5z"/>
	</g>
</g>
<g id="XMLID_182_">
	<g id="XMLID_63_">
		<path id="XMLID_89_" class="st2" d="M26.4,19.4V8.7c0-0.5,0.2-0.8,0.3-0.9l11.5,0c0,0,0.2,0.3,0.2,0.9v10.6H26.4z"/>
		<path id="XMLID_86_" d="M37.3,8.9v9.5h-10V8.9H37.3 M38.1,6.9H26.6c-0.7,0-1.2,0.8-1.2,1.9v11.6h14V8.7
			C39.3,7.7,38.8,6.9,38.1,6.9L38.1,6.9z"/>
	</g>
	<g id="XMLID_24_">
		<rect id="XMLID_83_" x="26.4" y="32.1" class="st2" width="12" height="28"/>
		<path id="XMLID_79_" d="M37.3,33.1v26h-10v-26H37.3 M39.3,31.1h-14v30h14V31.1L39.3,31.1z"/>
	</g>
	<g id="XMLID_8_">
		<path id="XMLID_77_" class="st2" d="M26.6,87.5c0,0-0.2-0.3-0.2-0.9V72.9h12v13.7c0,0.5-0.2,0.8-0.3,0.9H26.6z"/>
		<path id="XMLID_74_" d="M37.3,73.9v12.6h-10V73.9H37.3 M39.3,71.9h-14v14.7c0,1,0.5,1.9,1.2,1.9h11.5c0.7,0,1.2-0.8,1.2-1.9V71.9
			L39.3,71.9z"/>
	</g>
	<g id="XMLID_6_">
		<rect id="XMLID_70_" x="26.4" y="25.3" class="st2" width="12" height="0.8"/>
		<polygon id="XMLID_69_" points="39.3,24.3 25.4,24.3 25.4,27.2 39.3,27.2 39.3,24.3 		"/>
	</g>
	<g id="XMLID_11_">
		<rect id="XMLID_67_" x="26.4" y="66.1" class="st2" width="12" height="0.8"/>
		<polygon id="XMLID_66_" points="39.3,65.1 25.4,65.1 25.4,67.9 39.3,67.9 39.3,65.1 		"/>
	</g>
</g>
<g id="XMLID_184_">
	<g id="XMLID_104_">
		
			<rect id="XMLID_26_" x="71.7" y="37.1" transform="matrix(-0.9345 0.356 -0.356 -0.9345 156.867 45.8316)" class="st2" width="5.1" height="0.4"/>
		<polygon id="XMLID_25_" points="77.1,34.9 70.5,37.5 71.3,39.8 78,37.2 77.1,34.9 		"/>
	</g>
	<g id="XMLID_81_">
		
			<rect id="XMLID_23_" x="84.2" y="70.1" transform="matrix(-0.9345 0.3559 -0.3559 -0.9345 192.8554 105.0777)" class="st2" width="5.1" height="0.4"/>
		<polygon id="XMLID_22_" points="89.7,67.9 83,70.4 83.9,72.7 90.5,70.1 89.7,67.9 		"/>
	</g>
	<g id="XMLID_112_">
		<path id="XMLID_36_" class="st2" d="M66.6,24.5c-0.1-0.2-0.1-0.4-0.2-0.6l4.7-1.8c0.1,0.1,0.2,0.3,0.3,0.6l3.2,8.5L69.8,33
			L66.6,24.5z"/>
		<path id="XMLID_32_" d="M70.6,23.4l2.7,7.2l-2.9,1.1l-2.7-7.2L70.6,23.4 M71.4,21C71.4,21,71.3,21,71.4,21l-5.9,2.3
			c-0.2,0.1-0.1,0.8,0.2,1.7l3.6,9.4l6.7-2.5l-3.6-9.4C72,21.6,71.6,21,71.4,21L71.4,21z"/>
	</g>
	<g id="XMLID_85_">
		
			<rect id="XMLID_38_" x="77.9" y="41.8" transform="matrix(-0.9345 0.3561 -0.3561 -0.9345 174.8433 75.4431)" class="st2" width="5.1" height="23.9"/>
		<path id="XMLID_30_" d="M78,43l7.8,20.5l-2.9,1.1l-7.8-20.5L78,43 M79.2,40.4L72.5,43l9.2,24.2l6.7-2.5L79.2,40.4L79.2,40.4z"/>
	</g>
	<g id="XMLID_20_">
		<path id="XMLID_42_" class="st2" d="M90.8,88c-0.1-0.1-0.2-0.3-0.3-0.6l-4.2-11l4.8-1.8l4.2,11c0.1,0.2,0.1,0.4,0.2,0.6L90.8,88z"
			/>
		<path id="XMLID_39_" d="M90.6,75.9l3.7,9.7l-2.9,1.1l-3.7-9.7L90.6,75.9 M91.7,73.4l-6.7,2.5l4.5,11.9c0.3,0.8,0.7,1.4,0.9,1.4
			c0,0,0,0,0,0l5.9-2.2c0.2-0.1,0.1-0.8-0.2-1.7L91.7,73.4L91.7,73.4z"/>
	</g>
</g>
</svg>
