<?xml version="1.0" encoding="utf-8"?>
<!-- Generator: Adobe Illustrator 19.0.0, SVG Export Plug-In . SVG Version: 6.00 Build 0)  -->
<svg version="1.1" id="Warstwa_1" xmlns="http://www.w3.org/2000/svg" xmlns:xlink="http://www.w3.org/1999/xlink" x="0px" y="0px"
	 viewBox="0 0 100 100" style="enable-background:new 0 0 100 100;" xml:space="preserve">
<style type="text/css">
	.st0{fill:none;stroke:#000000;stroke-width:2;stroke-linecap:round;stroke-miterlimit:10;}
	.st1{fill:#1C75BC;}
	.st2{fill:#F7941E;}
	.st3{fill:none;}
	.st4{font-family:'MyriadPro-Regular';}
	.st5{font-size:12px;}
</style>
<line id="XMLID_2_" class="st0" x1="3.4" y1="78.7" x2="96.1" y2="78.7"/>
<g id="XMLID_181_">
	<g id="XMLID_52_">
		<path id="XMLID_108_" class="st1" d="M8.2,17.7V9c0-0.3,0.2-0.5,0.2-0.6l11.5,0c0.1,0,0.2,0.2,0.2,0.6v8.7H8.2z"/>
		<path id="XMLID_105_" class="st1" d="M19.2,9.5v7.3h-10l0-7.3H19.2 M20,7.5H8.4C7.7,7.5,7.2,8.2,7.2,9v9.7h14V9
			C21.2,8.2,20.6,7.5,20,7.5L20,7.5z"/>
	</g>
	<g id="XMLID_46_">
		<rect id="XMLID_102_" x="8.2" y="28.7" class="st1" width="12" height="23"/>
		<path id="XMLID_99_" class="st1" d="M19.2,29.7v21h-10v-21H19.2 M21.2,27.7h-14v25h14V27.7L21.2,27.7z"/>
	</g>
	<g id="XMLID_28_">
		<path id="XMLID_97_" class="st1" d="M8.4,74.5c-0.1,0-0.2-0.2-0.2-0.6V62.6h12v11.3c0,0.3-0.2,0.5-0.2,0.6H8.4z"/>
		<path id="XMLID_94_" class="st1" d="M19.2,63.6l0,9.9h-10v-9.9H19.2 M21.2,61.6h-14v12.3c0,0.9,0.5,1.6,1.2,1.6H20
			c0.7,0,1.2-0.7,1.2-1.6V61.6L21.2,61.6z"/>
	</g>
</g>
<g id="XMLID_183_">
	<g id="XMLID_35_">
		<path id="XMLID_92_" class="st1" d="M43.8,24.7v-7.5c0-0.1,0.3-0.4,0.9-0.4h17.8c0.6,0,0.9,0.3,0.9,0.4v7.5H43.8z"/>
		<path id="XMLID_89_" class="st1" d="M62.3,17.8v5.9H44.8v-5.9H62.3 M62.5,15.8H44.6c-1,0-1.9,0.6-1.9,1.4v8.5h21.6v-8.5
			C64.3,16.5,63.5,15.8,62.5,15.8L62.5,15.8z"/>
	</g>
	<g id="XMLID_15_">
		<rect id="XMLID_87_" x="43.8" y="34.6" class="st1" width="19.6" height="19.9"/>
		<path id="XMLID_83_" class="st1" d="M62.3,35.6v17.9H44.8V35.6H62.3 M64.3,33.6H42.8v21.9h21.6V33.6L64.3,33.6z"/>
	</g>
	<g id="XMLID_4_">
		<path id="XMLID_80_" class="st1" d="M44.6,74.5c-0.6,0-0.9-0.3-0.9-0.4v-9.8h19.6v9.8c0,0.1-0.3,0.4-0.9,0.4H44.6z"/>
		<path id="XMLID_77_" class="st1" d="M62.3,65.4v8.1H44.8v-8.1H62.3 M64.3,63.4H42.8v10.8c0,0.8,0.8,1.4,1.9,1.4h17.8
			c1,0,1.9-0.6,1.9-1.4V63.4L64.3,63.4z"/>
	</g>
</g>
<g id="XMLID_182_">
	<g id="XMLID_63_">
		<path id="XMLID_75_" class="st2" d="M26.4,15.3V6.2c0-0.4,0.2-0.6,0.2-0.6l11.5,0c0,0,0.2,0.3,0.2,0.6v9.1H26.4z"/>
		<path id="XMLID_72_" class="st2" d="M37.3,6.5v7.7h-10l0-7.7H37.3 M38.1,4.5H26.6c-0.7,0-1.2,0.7-1.2,1.6v10.1h14V6.2
			C39.3,5.3,38.8,4.5,38.1,4.5L38.1,4.5z"/>
	</g>
	<g id="XMLID_24_">
		<rect id="XMLID_70_" x="26.4" y="26.6" class="st2" width="12" height="24.1"/>
		<path id="XMLID_67_" class="st2" d="M37.3,27.6v22.1h-10V27.6H37.3 M39.3,25.6h-14v26.1h14V25.6L39.3,25.6z"/>
	</g>
	<g id="XMLID_8_">
		<path id="XMLID_65_" class="st2" d="M26.6,74.5c0,0-0.2-0.3-0.2-0.6V62.1h12v11.8c0,0.4-0.2,0.6-0.2,0.6H26.6z"/>
		<path id="XMLID_61_" class="st2" d="M37.3,63.1l0,10.4h-9.9V63.1H37.3 M39.3,61.1h-14v12.8c0,0.9,0.5,1.6,1.2,1.6h11.5
			c0.7,0,1.2-0.7,1.2-1.6V61.1L39.3,61.1z"/>
	</g>
	<g id="XMLID_6_">
		<rect id="XMLID_43_" x="26.4" y="20.7" class="st2" width="12" height="0.4"/>
		<polygon id="XMLID_42_" class="st2" points="39.3,19.7 25.4,19.7 25.4,22.2 39.3,22.2 39.3,19.7 		"/>
	</g>
	<g id="XMLID_11_">
		<rect id="XMLID_41_" x="26.4" y="56.1" class="st2" width="12" height="0.5"/>
		<polygon id="XMLID_40_" class="st2" points="39.3,55.1 25.4,55.1 25.4,57.6 39.3,57.6 39.3,55.1 		"/>
	</g>
</g>
<g id="XMLID_184_">
	<g id="XMLID_104_">
		<rect id="XMLID_39_" x="68.2" y="26.4" class="st2" width="3.4" height="0.2"/>
		<polygon id="XMLID_38_" class="st2" points="72.6,25.4 67.2,25.4 67.2,27.7 72.6,27.7 72.6,25.4 		"/>
	</g>
	<g id="XMLID_81_">
		<rect id="XMLID_54_" x="68.2" y="58.2" class="st2" width="3.4" height="0.2"/>
		<polygon id="XMLID_49_" class="st2" points="72.6,57.2 67.2,57.2 67.2,59.4 72.6,59.4 72.6,57.2 		"/>
	</g>
	<g id="XMLID_112_">
		<path id="XMLID_115_" class="st2" d="M68.2,21.4v-8.1c0-0.2,0-0.3,0-0.5h3.4c0,0.1,0,0.3,0,0.5v8.1H68.2z"/>
		<path id="XMLID_76_" class="st2" d="M70.6,13.8v6.5h-1.4v-6.5H70.6 M72.3,11.8h-4.8c-0.2,0-0.3,0.7-0.3,1.5v9.1h5.4v-9.1
			C72.6,12.5,72.4,11.8,72.3,11.8L72.3,11.8z"/>
	</g>
	<g id="XMLID_85_">
		<rect id="XMLID_113_" x="68.2" y="31.7" class="st2" width="3.4" height="21.4"/>
		<path id="XMLID_88_" class="st2" d="M70.6,32.7v19.4h-1.4V32.7H70.6 M72.6,30.7h-5.4v23.4h5.4V30.7L72.6,30.7z"/>
	</g>
	<g id="XMLID_20_">
		<path id="XMLID_110_" class="st2" d="M68.2,74.5c0-0.1,0-0.3,0-0.5V63.5h3.4V74c0,0.2,0,0.3,0,0.5H68.2z"/>
		<path id="XMLID_98_" class="st2" d="M70.6,64.5v9h-1.4v-9H70.6 M72.6,62.5h-5.4V74c0,0.8,0.1,1.5,0.3,1.5h4.8
			c0.2,0,0.3-0.7,0.3-1.5V62.5L72.6,62.5z"/>
	</g>
</g>
<g id="XMLID_186_">
	<g id="XMLID_178_">
		<path id="XMLID_121_" class="st1" d="M89.2,75.8c0-0.1-0.1-0.2-0.1-0.3l-1.6-6.2l2.6-0.5c0,0,1.7,6.4,1.7,6.5L89.2,75.8z"/>
		<path id="XMLID_59_" class="st1" d="M89.3,70l1.2,4.5l-0.7,0.1l-1.2-4.5L89.3,70 M90.8,67.7l-4.6,0.9l1.9,7.2
			c0.2,0.6,0.5,1.1,0.7,1.1c0,0,0,0,0,0l3.8-0.7c0.2,0,0.3-0.6,0.1-1.2L90.8,67.7L90.8,67.7z"/>
	</g>
	<g id="XMLID_173_">
		<polygon id="XMLID_119_" class="st1" points="80.8,44.1 83.5,43.5 87.8,60.2 85.2,60.7 		"/>
		<path id="XMLID_57_" class="st1" d="M82.7,44.7l3.9,14.7l-0.7,0.1l-3.9-14.7L82.7,44.7 M84.2,42.4l-4.6,0.9l4.9,18.6l4.6-0.9
			L84.2,42.4L84.2,42.4z"/>
	</g>
	<g id="XMLID_160_">
		<path id="XMLID_117_" class="st1" d="M76.4,27l2.6-0.5c0,0.1,0.1,0.2,0.1,0.2l2.1,8.1l-2.6,0.5C78.6,35.4,76.4,27.1,76.4,27z"/>
		<path id="XMLID_66_" class="st1" d="M78.3,27.7l1.7,6.4l-0.7,0.1l-1.7-6.4L78.3,27.7 M79.4,25.4C79.4,25.4,79.3,25.4,79.4,25.4
			l-3.8,0.8c-0.2,0-0.3,0.6-0.1,1.2l2.4,9.2l4.6-0.9L80,26.5C79.9,25.9,79.6,25.4,79.4,25.4L79.4,25.4z"/>
	</g>
	<g id="XMLID_137_">
		<polygon id="XMLID_23_" class="st1" points="85.1,64.4 89.7,63.5 90.2,65.2 85.6,66.1 		"/>
		<polygon id="XMLID_22_" class="st1" points="89.7,63.5 85.1,64.4 85.6,66.1 90.2,65.2 89.7,63.5 		"/>
	</g>
	<g id="XMLID_136_">
		<polygon id="XMLID_32_" class="st1" points="78.5,39.1 83.1,38.2 83.5,39.9 79,40.8 		"/>
		<polygon id="XMLID_21_" class="st1" points="83.1,38.2 78.5,39.1 79,40.8 83.5,39.9 83.1,38.2 		"/>
	</g>
</g>
<rect id="XMLID_1_" x="4.3" y="85" class="st3" width="91.5" height="14"/>
<text id="XMLID_3_" transform="matrix(1 0 0 1 11.2998 93.5199)" class="st4 st5">Moja biblioteka</text>
</svg>
