<?xml version="1.0" encoding="utf-8"?>
<!-- Generator: Adobe Illustrator 19.0.0, SVG Export Plug-In . SVG Version: 6.00 Build 0)  -->
<svg version="1.1" id="Warstwa_1" xmlns="http://www.w3.org/2000/svg" xmlns:xlink="http://www.w3.org/1999/xlink" x="0px" y="0px"
	 viewBox="0 0 128 192" style="enable-background:new 0 0 128 192;" xml:space="preserve">
<style type="text/css">
	.st0{fill:none;stroke:#6D6E71;stroke-width:2;stroke-miterlimit:10;}
	.st1{fill:none;stroke:#000000;stroke-width:4;stroke-miterlimit:10;}
	.st2{fill:none;stroke:#6D6E71;stroke-width:5;stroke-miterlimit:10;}
	.st3{fill:#6D6E71;}
</style>
<path id="XMLID_10_" class="st0" d="M100.9,47.3l-30,54.9l-38-20.8c-4-2.2-9.1-0.8-11.4,3c0-0.1,0.1-0.1,0.1-0.2l29.6-54.3
	c2.3-4.2,7.5-5.7,11.7-3.4L100.9,47.3z"/>
<path id="XMLID_12_" class="st0" d="M71,102.2L63,116.7L25,95.9c-4-2.2-5.6-7.2-3.6-11.3c0-0.1,0.1-0.1,0.1-0.2
	c2.4-3.9,7.4-5.3,11.4-3L71,102.2z"/>
<path id="XMLID_5_" class="st1" d="M66.9,85.9"/>
<circle id="XMLID_30_" class="st2" cx="64" cy="71.7" r="58.5"/>
<line id="XMLID_31_" class="st2" x1="23.5" y1="29.5" x2="106.2" y2="112.2"/>
<g id="XMLID_34_">
	<path id="XMLID_35_" class="st3" d="M31.8,157.8c-3.4,0-5.4-2.6-5.4-5.8c0-3.4,2.2-6,5.6-6c3.5,0,5.4,2.6,5.4,5.8
		C37.5,155.5,35.2,157.8,31.8,157.8L31.8,157.8z M32,155.7c1.8,0,2.8-1.6,2.8-3.9c0-2.1-1-3.8-2.8-3.8c-1.8,0-2.8,1.7-2.8,3.9
		C29.2,154,30.2,155.7,32,155.7L32,155.7z"/>
	<path id="XMLID_38_" class="st3" d="M39.2,146.1h2.6v5.1h0c0.3-0.4,0.5-0.8,0.8-1.3l2.6-3.8h3.2l-3.8,4.9l4,6.6h-3l-2.8-4.9l-1,1.2
		v3.7h-2.6V146.1z"/>
	<path id="XMLID_40_" class="st3" d="M49.7,157.6v-4l-1.3,0.9v-1.8l1.3-0.9v-5.7h2.6v3.9l2.1-1.4v1.8l-2.1,1.4v3.5h4.6v2.2H49.7z"/>
	<path id="XMLID_42_" class="st3" d="M61.1,154.6l-0.8,2.9h-2.7l3.5-11.5h3.4l3.6,11.5h-2.8l-0.9-2.9H61.1z M64,152.7l-0.7-2.4
		c-0.2-0.7-0.4-1.5-0.6-2.2h-0.1c-0.2,0.7-0.3,1.5-0.5,2.2l-0.7,2.4H64z"/>
	<path id="XMLID_45_" class="st3" d="M69.6,146.3c1-0.2,2.2-0.3,3.5-0.3c2.2,0,3.6,0.4,4.7,1.2c1.2,0.9,1.9,2.3,1.9,4.3
		c0,2.2-0.8,3.7-1.9,4.6c-1.2,1-3.1,1.5-5.3,1.5c-1.3,0-2.3-0.1-2.9-0.2V146.3z M72.2,155.6c0.2,0.1,0.6,0.1,0.9,0.1
		c2.4,0,3.9-1.3,3.9-4c0-2.4-1.4-3.6-3.6-3.6c-0.6,0-1,0.1-1.2,0.1V155.6z"/>
	<path id="XMLID_48_" class="st3" d="M81.5,146.1H84v5.1h0c0.3-0.4,0.5-0.8,0.8-1.3l2.6-3.8h3.2l-3.8,4.9l4,6.6h-3l-2.8-4.9l-1,1.2
		v3.7h-2.6V146.1z"/>
	<path id="XMLID_50_" class="st3" d="M94.8,154.6l-0.8,2.9h-2.7l3.5-11.5h3.4l3.6,11.5H99l-0.9-2.9H94.8z M97.7,152.7l-0.7-2.4
		c-0.2-0.7-0.4-1.5-0.6-2.2h-0.1c-0.2,0.7-0.3,1.5-0.5,2.2l-0.7,2.4H97.7z"/>
	<path id="XMLID_53_" class="st3" d="M10.1,178v-11.5h3l2.4,4.2c0.7,1.2,1.3,2.6,1.9,3.9h0c-0.2-1.5-0.2-3.1-0.2-4.8v-3.3h2.4V178
		h-2.7l-2.4-4.4c-0.7-1.2-1.4-2.7-2-4h-0.1c0.1,1.5,0.1,3.1,0.1,5v3.5H10.1z"/>
	<path id="XMLID_55_" class="st3" d="M24.4,166.5V178h-2.6v-11.5H24.4z"/>
	<path id="XMLID_57_" class="st3" d="M33.5,173.1h-4.2v2.7H34v2.1h-7.3v-11.5h7.1v2.1h-4.5v2.4h4.2V173.1z"/>
	<path id="XMLID_59_" class="st3" d="M35.8,166.7c1-0.2,2.2-0.3,3.5-0.3c2.2,0,3.6,0.4,4.7,1.2c1.2,0.9,1.9,2.3,1.9,4.3
		c0,2.2-0.8,3.7-1.9,4.6c-1.2,1-3.1,1.5-5.3,1.5c-1.3,0-2.3-0.1-2.9-0.2V166.7z M38.4,176c0.2,0.1,0.6,0.1,0.9,0.1
		c2.4,0,3.9-1.3,3.9-4c0-2.4-1.4-3.6-3.6-3.6c-0.6,0-1,0.1-1.2,0.1V176z"/>
	<path id="XMLID_62_" class="st3" d="M52.5,178.2c-3.4,0-5.4-2.6-5.4-5.8c0-3.4,2.2-6,5.6-6c3.5,0,5.4,2.6,5.4,5.8
		C58.1,175.9,55.8,178.2,52.5,178.2L52.5,178.2z M52.6,176.1c1.8,0,2.8-1.6,2.8-3.9c0-2.1-1-3.8-2.8-3.8c-1.8,0-2.8,1.7-2.8,3.9
		C49.8,174.4,50.9,176.1,52.6,176.1L52.6,176.1z"/>
	<path id="XMLID_65_" class="st3" d="M59.9,175.3c0.7,0.4,1.8,0.7,2.9,0.7c1.2,0,1.8-0.5,1.8-1.2c0-0.7-0.5-1.1-1.9-1.6
		c-1.9-0.7-3.2-1.7-3.2-3.4c0-2,1.6-3.4,4.3-3.4c1.3,0,2.2,0.3,2.9,0.6l-0.6,2.1c-0.4-0.2-1.3-0.5-2.4-0.5c-1.1,0-1.7,0.5-1.7,1.1
		c0,0.7,0.6,1.1,2.1,1.6c2,0.7,3,1.8,3,3.4c0,1.9-1.5,3.6-4.6,3.6c-1.3,0-2.6-0.4-3.2-0.7L59.9,175.3z"/>
	<path id="XMLID_67_" class="st3" d="M71.2,168.7h-3.1v-2.2h8.8v2.2h-3.1v9.3h-2.6V168.7z"/>
	<path id="XMLID_69_" class="st3" d="M85.7,181.2c-0.5,0.3-1.1,0.5-1.8,0.5c-1.1,0-1.8-0.6-1.8-1.6c0-1,0.6-1.7,1.2-2.1h-5v-11.5
		h7.1v2.1h-4.5v2.4h4.2v2.1h-4.2v2.7h4.7v2.1c-0.1,0-0.3,0-0.4,0c-0.6,0.4-1.2,1-1.2,1.6c0,0.3,0.3,0.5,0.6,0.5c0.2,0,0.5,0,0.7-0.1
		L85.7,181.2z"/>
	<path id="XMLID_71_" class="st3" d="M87.4,166.7c0.8-0.1,1.9-0.2,3.5-0.2c1.6,0,2.7,0.3,3.5,0.9c0.7,0.6,1.2,1.5,1.2,2.6
		c0,1.1-0.4,2.1-1.1,2.7c-0.9,0.8-2.2,1.2-3.7,1.2c-0.3,0-0.6,0-0.9-0.1v4.1h-2.6V166.7z M89.9,171.9c0.2,0.1,0.5,0.1,0.9,0.1
		c1.4,0,2.2-0.7,2.2-1.9c0-1.1-0.7-1.7-2-1.7c-0.5,0-0.9,0-1.1,0.1V171.9z"/>
	<path id="XMLID_74_" class="st3" d="M97.2,178v-11.5h3l2.4,4.2c0.7,1.2,1.3,2.6,1.9,3.9h0c-0.2-1.5-0.2-3.1-0.2-4.8v-3.3h2.4V178
		H104l-2.4-4.4c-0.7-1.2-1.4-2.7-2-4h-0.1c0.1,1.5,0.1,3.1,0.1,5v3.5H97.2z"/>
	<path id="XMLID_76_" class="st3" d="M111.6,175l-0.8,2.9h-2.7l3.5-11.5h3.4l3.6,11.5h-2.8l-0.9-2.9H111.6z M114.5,173.1l-0.7-2.4
		c-0.2-0.7-0.4-1.5-0.6-2.2h-0.1c-0.2,0.7-0.3,1.5-0.5,2.2l-0.7,2.4H114.5z"/>
</g>
</svg>
