<?xml version="1.0" encoding="utf-8"?>
<!-- Generator: Adobe Illustrator 19.0.0, SVG Export Plug-In . SVG Version: 6.00 Build 0)  -->
<svg version="1.1" id="Warstwa_1" xmlns="http://www.w3.org/2000/svg" xmlns:xlink="http://www.w3.org/1999/xlink" x="0px" y="0px"
	 viewBox="0 0 100 100" style="enable-background:new 0 0 100 100;" xml:space="preserve">
<style type="text/css">
	.st0{fill:none;stroke:#000000;stroke-width:2;stroke-miterlimit:10;}
	.st1{fill:#808285;stroke:#000000;stroke-width:2;stroke-miterlimit:10;}
</style>
<path id="XMLID_16_" class="st0" d="M72.8,50c0,12.6-10.2,22.8-22.8,22.8S27.2,62.6,27.2,50S37.4,27.2,50,27.2S72.8,37.4,72.8,50z"
	/>
<path id="XMLID_37_" class="st1" d="M97.5,54.9v-9.7l-11.8-3.2c-0.9-4.1-2.5-7.9-4.7-11.4L87,19.9L80.1,13l-10.6,6.1
	c-3.5-2.2-7.3-3.8-11.4-4.7L54.9,2.5h-9.7l-3.2,11.8c-4.1,0.9-7.9,2.5-11.4,4.7L19.9,13L13,19.9l6.1,10.6c-2.2,3.5-3.8,7.3-4.7,11.4
	L2.5,45.1v9.7l11.8,3.2c0.9,4.1,2.5,7.9,4.7,11.4L13,80.1l6.9,6.9l10.6-6.1c3.5,2.2,7.3,3.8,11.4,4.7l3.2,11.8h9.7l3.2-11.8
	c4.1-0.9,7.9-2.5,11.4-4.7L80.1,87l6.9-6.9l-6.1-10.6c2.2-3.5,3.8-7.3,4.7-11.4L97.5,54.9z M50,72.8c-12.6,0-22.8-10.2-22.8-22.8
	S37.4,27.2,50,27.2S72.8,37.4,72.8,50S62.6,72.8,50,72.8z"/>
<path id="XMLID_15_" class="st0" d="M72.8,50c0,12.6-10.2,22.8-22.8,22.8S27.2,62.6,27.2,50S37.4,27.2,50,27.2S72.8,37.4,72.8,50z"
	/>
</svg>
