<?xml version="1.0" encoding="utf-8"?>
<!-- Generator: Adobe Illustrator 19.0.0, SVG Export Plug-In . SVG Version: 6.00 Build 0)  -->
<svg version="1.1" id="Warstwa_1" xmlns="http://www.w3.org/2000/svg" xmlns:xlink="http://www.w3.org/1999/xlink" x="0px" y="0px"
	 viewBox="0 0 100 100" style="enable-background:new 0 0 100 100;" xml:space="preserve">
<style type="text/css">
	.st0{fill:#F7941E;stroke:#000000;stroke-width:2;stroke-miterlimit:10;}
	.st1{fill:#1C75BC;stroke:#000000;stroke-width:2;stroke-miterlimit:10;}
	.st2{fill:none;stroke:#000000;stroke-width:2;stroke-miterlimit:10;}
</style>
<path id="XMLID_11_" class="st0" d="M85.7,28.8c0,6.8-5.5,12.4-12.4,12.4c-3.6,0-6.9-1.5-9.1-4c2.6-3.2,4.2-7.3,4.2-11.7
	c0-2.6-0.5-5-1.5-7.2c1.9-1.1,4.1-1.8,6.4-1.8C80.2,16.4,85.7,22,85.7,28.8z"/>
<path id="XMLID_14_" class="st1" d="M96.7,64.5c0,4.3-5.3,7.2-12.3,8.6c-2.1-13.3-11.7-24-24.3-27.8c3.8-2.6,8.3-4.2,13.3-4.2
	C86.3,41.1,96.7,51.6,96.7,64.5z"/>
<path id="XMLID_12_" class="st0" d="M35.8,37.1c-2.3,2.5-5.5,4-9.1,4c-6.8,0-12.4-5.5-12.4-12.4c0-6.8,5.5-12.4,12.4-12.4
	c2.3,0,4.5,0.6,6.4,1.8c-0.9,2.2-1.5,4.6-1.5,7.2C31.6,29.8,33.1,33.9,35.8,37.1z"/>
<path id="XMLID_9_" class="st1" d="M39.9,45.3c-12.6,3.8-22.2,14.6-24.3,27.8c-7-1.4-12.3-4.3-12.3-8.6c0-12.9,10.5-23.4,23.4-23.4
	C31.6,41.1,36.2,42.7,39.9,45.3z"/>
<path id="XMLID_8_" class="st0" d="M68.4,25.4c0,4.5-1.6,8.6-4.2,11.7c-3.4,4.1-8.5,6.7-14.2,6.7s-10.8-2.6-14.2-6.7
	c-2.6-3.2-4.2-7.3-4.2-11.7c0-2.6,0.5-5,1.5-7.2c2.8-6.6,9.3-11.3,17-11.3s14.2,4.6,17,11.3C67.9,20.4,68.4,22.8,68.4,25.4z"/>
<path id="XMLID_15_" class="st2" d="M50,43.8c-3.5,0-6.9,0.5-10.1,1.5c-3.8-2.6-8.3-4.2-13.3-4.2c3.6,0,6.9-1.5,9.1-4
	C39.2,41.2,44.3,43.8,50,43.8z"/>
<path id="XMLID_7_" class="st1" d="M84.8,78.6c0,19.2-69.6,19.2-69.6,0c0-1.9,0.2-3.7,0.4-5.5c2.1-13.3,11.7-24,24.3-27.8
	c3.2-1,6.6-1.5,10.1-1.5s6.9,0.5,10.1,1.5c12.6,3.8,22.2,14.6,24.3,27.8C84.7,74.9,84.8,76.8,84.8,78.6z"/>
</svg>
