<?xml version="1.0" encoding="utf-8"?>
<!-- Generator: Adobe Illustrator 19.0.0, SVG Export Plug-In . SVG Version: 6.00 Build 0)  -->
<svg version="1.1" id="Warstwa_1" xmlns="http://www.w3.org/2000/svg" xmlns:xlink="http://www.w3.org/1999/xlink" x="0px" y="0px"
	 viewBox="0 0 100 20" style="enable-background:new 0 0 100 20;" xml:space="preserve">
<style type="text/css">
	.st0{fill:#2E3192;}
</style>
<g id="XMLID_1_">
	<path id="XMLID_17_" class="st0" d="M9.8,19.3c-5.1,0-9.3-4.2-9.3-9.3c0-5.2,4.2-9.3,9.3-9.3h80.5c5.1,0,9.3,4.2,9.3,9.3
		c0,5.2-4.2,9.3-9.3,9.3H9.8z"/>
	<path id="XMLID_14_" d="M90.2,1.2c4.8,0,8.8,3.9,8.8,8.8V10c0,4.8-3.9,8.8-8.8,8.8H9.8C4.9,18.8,1,14.9,1,10V10
		c0-4.8,3.9-8.8,8.8-8.8H90.2 M90.2,0.2H9.8C4.4,0.2,0,4.6,0,10V10c0,5.4,4.4,9.8,9.8,9.8h80.5c5.4,0,9.8-4.4,9.8-9.8V10
		C100,4.6,95.6,0.2,90.2,0.2L90.2,0.2z"/>
</g>
</svg>
